<svg id="heart" xmlns="http://www.w3.org/2000/svg" viewBox="0 0 4020 3311">
  <title>heart-2</title>
  <path d="M2049.42,754.1c456.34-341.26,916.26-402.35,1392.65-130.94,504.34,287.33,731.28,867.23,545.34,1420-250.64,745.13-756.09,1272.24-1460.73,1607.14-327.23,155.53-668.83,150.8-992.21-7.59C847.41,3306.19,352.9,2783.31,96.47,2056.84c-166.82-472.63-.32-1014.6,380.63-1325.12,402.52-328.1,905.11-366.26,1367.12-102.94C1906.76,664.43,1967.22,703.75,2049.42,754.1Zm-1.7,361.66c-92.66-65.48-160.87-113.17-228.56-161.59C1467.1,702.32,1021,696.42,694.9,939.52c-326.71,243.52-452,674.59-290.31,1083.2,243.68,615.8,667.79,1068.34,1273.61,1345.79,222.53,101.91,449.79,118.25,674,22.93,665-282.79,1119.35-773.92,1354.84-1452.15,131.72-379.36-22.18-784.77-333.57-1008.32-321.62-230.89-758.36-227.11-1094.31,10.7C2210.3,990.38,2144.22,1043,2047.72,1115.76Z" transform="translate(-31.85 -453.26)" style="fill: #0f0f0f"/>
</svg>
