<svg id="heart" xmlns="http://www.w3.org/2000/svg" viewBox="0 0 29.14 24">
  <title>Sans titre - 2</title>
  <path d="M.05-9.82c3.31-2.47,6.65-2.92,10.1-.95A8.55,8.55,0,0,1,14.1-.48,19.39,19.39,0,0,1,3.51,11.17a8,8,0,0,1-7.19-.05A19.85,19.85,0,0,1-14.1-.38,8.81,8.81,0,0,1-11.34-10a8.45,8.45,0,0,1,9.91-.75C-1-10.47-.54-10.18.05-9.82ZM0-7.2-1.61-8.37a6.86,6.86,0,0,0-8.15-.11A6.62,6.62,0,0,0-11.87-.62,17.42,17.42,0,0,0-2.64,9.13a5.85,5.85,0,0,0,4.89.17A17.12,17.12,0,0,0,12.07-1.23,6.45,6.45,0,0,0,9.65-8.54a6.82,6.82,0,0,0-7.93.08C1.22-8.11.74-7.73,0-7.2Z" transform="translate(14.57 12)" style="fill: #0f0f0f"/>
</svg>
